<?xml version="1.0" encoding="UTF-8" standalone="no"?>
<!-- Created with Inkscape (http://www.inkscape.org/) -->

<svg
   xmlns:dc="http://purl.org/dc/elements/1.1/"
   xmlns:cc="http://creativecommons.org/ns#"
   xmlns:rdf="http://www.w3.org/1999/02/22-rdf-syntax-ns#"
   xmlns:svg="http://www.w3.org/2000/svg"
   xmlns="http://www.w3.org/2000/svg"
   xmlns:sodipodi="http://sodipodi.sourceforge.net/DTD/sodipodi-0.dtd"
   xmlns:inkscape="http://www.inkscape.org/namespaces/inkscape"
   width="105mm"
   height="74mm"
   viewBox="0 0 105 74"
   version="1.1"
   id="svg4631"
   inkscape:version="0.92.3 (2405546, 2018-03-11)"
   sodipodi:docname="LOGO2.svg">
  <defs
     id="defs4625" />
  <sodipodi:namedview
     id="base"
     pagecolor="#ffffff"
     bordercolor="#666666"
     borderopacity="1.0"
     inkscape:pageopacity="0.0"
     inkscape:pageshadow="2"
     inkscape:zoom="0.98994949"
     inkscape:cx="524.34978"
     inkscape:cy="210.0924"
     inkscape:document-units="mm"
     inkscape:current-layer="layer1"
     showgrid="false"
     inkscape:window-width="1366"
     inkscape:window-height="705"
     inkscape:window-x="-8"
     inkscape:window-y="-8"
     inkscape:window-maximized="1"
     units="mm" />
  <metadata
     id="metadata4628">
    <rdf:RDF>
      <cc:Work
         rdf:about="">
        <dc:format>image/svg+xml</dc:format>
        <dc:type
           rdf:resource="http://purl.org/dc/dcmitype/StillImage" />
        <dc:title></dc:title>
      </cc:Work>
    </rdf:RDF>
  </metadata>
  <g
     inkscape:label="Capa 1"
     inkscape:groupmode="layer"
     id="layer1"
     transform="translate(0,-223)">
    <path
       style="fill:#1a1a1a;stroke-width:0.26458332"
       id="path4633"
       sodipodi:type="arc"
       sodipodi:cx="144.00893"
       sodipodi:cy="163.57442"
       sodipodi:rx="63.122013"
       sodipodi:ry="32.883926"
       sodipodi:start="0"
       sodipodi:end="0.01176463"
       d="m 207.13094,163.57442 a 63.122013,32.883926 0 0 1 -0.004,0.38686"
       sodipodi:open="true" />
    <path
       style="fill:#1a1a1a;stroke-width:0.26458332"
       id="path4637"
       sodipodi:type="arc"
       sodipodi:cx="98.488823"
       sodipodi:cy="155.48079"
       sodipodi:rx="32.740517"
       sodipodi:ry="5.2117558"
       sodipodi:start="0"
       sodipodi:end="0.011764636"
       sodipodi:open="true"
       d="m 131.22934,155.48079 a 32.740517,5.2117558 0 0 1 -0.002,0.0613" />
    <path
       style="fill:#0000ff;stroke-width:0.25346079"
       id="path4641"
       sodipodi:type="arc"
       sodipodi:cx="49.951607"
       sodipodi:cy="269.60489"
       sodipodi:rx="54.81805"
       sodipodi:ry="23.653353"
       sodipodi:start="0"
       sodipodi:end="2.6965431"
       sodipodi:open="true"
       d="M 104.76966,269.60489 A 54.81805,23.653353 0 0 1 62.049558,292.67503 54.81805,23.653353 0 0 1 0.47341919,279.78772" />
    <path
       style="fill:#1a1a1a;stroke-width:0.26458332"
       id="path4643"
       sodipodi:type="arc"
       sodipodi:cx="86.19442"
       sodipodi:cy="161.89526"
       sodipodi:rx="0.66817379"
       sodipodi:ry="0.13363476"
       sodipodi:start="0"
       sodipodi:end="5.6662463"
       sodipodi:open="true"
       d="m 86.862594,161.89526 a 0.66817379,0.13363476 0 0 1 -0.565527,0.13205 0.66817379,0.13363476 0 0 1 -0.739283,-0.0915 0.66817379,0.13363476 0 0 1 0.338383,-0.16016 0.66817379,0.13363476 0 0 1 0.843251,0.0423" />
    <path
       style="fill:#00ff00;stroke-width:0.26458332"
       id="path4645"
       sodipodi:type="arc"
       sodipodi:cx="56.26022"
       sodipodi:cy="261.31952"
       sodipodi:rx="45.034912"
       sodipodi:ry="24.722429"
       sodipodi:start="0.9879934"
       sodipodi:end="3.6824599"
       d="m 81.045919,281.96085 a 45.034912,24.722429 0 0 1 -55.95553,-2.79726 45.034912,24.722429 0 0 1 -7.43691,-30.57315 l 38.606741,12.72908 z" />
    <path
       sodipodi:type="star"
       style="fill:#ff6600;stroke-width:0.26458332"
       id="path4650"
       sodipodi:sides="5"
       sodipodi:cx="21.525655"
       sodipodi:cy="275.94204"
       sodipodi:r1="6.0921178"
       sodipodi:r2="3.0460589"
       sodipodi:arg1="1.5505756"
       sodipodi:arg2="2.1788942"
       inkscape:flatsided="false"
       inkscape:rounded="0"
       inkscape:randomized="0"
       d="m 21.648834,282.03292 -1.863414,-3.59086 -4.014464,-0.50068 2.839286,-2.88185 -0.764365,-3.9727 3.61819,1.80978 3.54206,-1.95458 -0.603121,4.00035 2.953478,2.7647 -3.990939,0.66258 z"
       inkscape:transform-center-x="-0.038063168"
       inkscape:transform-center-y="0.54542436" />
    <flowRoot
       xml:space="preserve"
       id="flowRoot4654"
       style="font-style:normal;font-weight:normal;font-size:40px;line-height:1.25;font-family:sans-serif;letter-spacing:0px;word-spacing:0px;fill:#000000;fill-opacity:1;stroke:none"
       transform="matrix(0.26458333,0,0,0.26458333,0,87)"><flowRegion
         id="flowRegion4656"><rect
           id="rect4658"
           width="113.64211"
           height="40.911156"
           x="359.61432"
           y="211.85294" /></flowRegion><flowPara
         id="flowPara4660">frfrr</flowPara></flowRoot>    <text
       xml:space="preserve"
       style="font-style:normal;font-weight:normal;font-size:10.58333302px;line-height:1.25;font-family:sans-serif;letter-spacing:0px;word-spacing:0px;fill:#000000;fill-opacity:1;stroke:none;stroke-width:0.26458332"
       x="8.0180941"
       y="246.2188"
       id="text4664"><tspan
         sodipodi:role="line"
         id="tspan4662"
         x="8.0180941"
         y="246.2188"
         style="stroke-width:0.26458332">FGR</tspan></text>
    <flowRoot
       xml:space="preserve"
       id="flowRoot4666"
       style="font-style:normal;font-weight:normal;font-size:40px;line-height:1.25;font-family:sans-serif;letter-spacing:0px;word-spacing:0px;fill:#000000;fill-opacity:1;stroke:none"
       transform="matrix(0.26458333,0,0,0.26458333,0,87)"><flowRegion
         id="flowRegion4668"><rect
           id="rect4670"
           width="60.609154"
           height="53.538086"
           x="536.39099"
           y="228.01538" /></flowRegion><flowPara
         id="flowPara4672"></flowPara></flowRoot>    <path
       sodipodi:type="spiral"
       style="fill:#ff0000;fill-rule:evenodd;stroke:#000000;stroke-width:0.26458332"
       id="path4674"
       sodipodi:cx="56.26022"
       sodipodi:cy="261.31952"
       sodipodi:expansion="1"
       sodipodi:revolution="3"
       sodipodi:radius="35.361485"
       sodipodi:argument="-18.274132"
       sodipodi:t0="0"
       d="m 56.26022,261.31952 c 1.487452,0.96483 -0.566719,2.48107 -1.603616,2.47224 -2.809927,-0.0239 -3.973614,-3.36855 -3.340872,-5.67947 1.131826,-4.13369 6.038543,-5.63539 9.755335,-4.2095 5.454542,2.09255 7.336514,8.74117 5.078128,13.83119 -3.010074,6.78421 -11.454913,9.05381 -17.907055,5.94676 -8.119362,-3.90991 -10.779341,-14.17384 -6.815384,-21.98292 4.800883,-9.45783 16.895666,-12.50962 26.058775,-7.68401 10.798406,5.68682 14.242892,19.61929 8.552639,30.13464 -6.569621,12.14037 -22.344122,15.97814 -34.210493,9.42126 -13.483325,-7.45034 -17.71479,-25.0698 -10.289896,-38.28635 8.329608,-14.82698 27.796094,-19.45244 42.362213,-11.15852 16.171154,9.20782 21.190857,30.52285 12.027152,46.43807" />
    <path
       sodipodi:type="star"
       style="fill:#000080;stroke-width:0.26458332"
       id="path4680"
       sodipodi:sides="5"
       sodipodi:cx="70.291878"
       sodipodi:cy="268.13489"
       sodipodi:r1="10.454305"
       sodipodi:r2="5.2271523"
       sodipodi:arg1="1.6475682"
       sodipodi:arg2="2.2758867"
       inkscape:flatsided="false"
       inkscape:rounded="0"
       inkscape:randomized="0"
       d="m 69.490069,278.5584 -2.585923,-6.44276 -6.773389,-1.52228 5.328333,-4.45028 -0.645322,-6.91228 5.879014,3.69233 6.374559,-2.74975 -1.694903,6.73227 4.585016,5.21284 -6.926521,0.46844 z"
       inkscape:transform-center-x="0.24777336"
       inkscape:transform-center-y="0.75971058" />
  </g>
</svg>
